<?xml version="1.0" encoding="UTF-8" standalone="no" ?>
<!DOCTYPE svg PUBLIC "-//W3C//DTD SVG 1.1//EN" "http://www.w3.org/Graphics/SVG/1.1/DTD/svg11.dtd">
<svg xmlns="http://www.w3.org/2000/svg" xmlns:xlink="http://www.w3.org/1999/xlink" version="1.1" width="400" height="400" viewBox="0 0 400 400" xml:space="preserve">
<desc>Created with Fabric.js 3.6.2</desc>
<defs>
</defs>
<g transform="matrix(0.39 0 0 0.39 200 200)"  >
<path style="stroke: none; stroke-width: 1; stroke-dasharray: none; stroke-linecap: butt; stroke-dashoffset: 0; stroke-linejoin: round; stroke-miterlimit: 2; fill: rgb(28,23,53); fill-rule: evenodd; opacity: 1;"  transform=" translate(-256, -256)" d="M 256 0 c 141.29 0 256 114.71 256 256 c 0 141.29 -114.71 256 -256 256 c -141.29 0 -256 -114.71 -256 -256 c 0 -141.29 114.71 -256 256 -256 Z m 153.315 178.978 c -3.68 -13.769 -14.522 -24.61 -28.29 -28.29 c -24.958 -6.688 -125.025 -6.688 -125.025 -6.688 c 0 0 -100.067 0 -125.025 6.688 c -13.765 3.68 -24.61 14.521 -28.29 28.29 c -6.685 24.955 -6.685 77.024 -6.685 77.024 c 0 0 0 52.067 6.685 77.02 c 3.68 13.769 14.525 24.614 28.29 28.293 c 24.958 6.685 125.025 6.685 125.025 6.685 c 0 0 100.067 0 125.025 -6.685 c 13.768 -3.679 24.61 -14.524 28.29 -28.293 c 6.685 -24.953 6.685 -77.02 6.685 -77.02 c 0 0 0 -52.069 -6.685 -77.024 Z m -185.316 125.025 l 0 -96.002 l 83.137 48.001 l -83.137 48.001 Z" stroke-linecap="round" />
</g>
</svg>