<svg width="1920" height="928" viewBox="0 0 1920 928" fill="none" xmlns="http://www.w3.org/2000/svg">
<path fill-rule="evenodd" clip-rule="evenodd" d="M2031.27 927.777L1935.29 778.174C1839.31 628.57 1647.36 329.362 1412.02 236.793C1176.67 144.224 897.937 258.294 658.254 186.389C418.571 114.484 217.94 -143.396 -26.0824 -194.637C-270.105 -245.878 -557.518 -90.481 -701.225 -12.7823L-844.931 64.9164L-714.758 -554.999L-592.747 -529.379C-470.736 -503.758 -226.713 -452.517 17.3088 -401.276C261.331 -350.035 505.353 -298.793 749.375 -247.552C993.398 -196.311 1237.42 -145.07 1481.44 -93.8286C1725.46 -42.5874 1969.49 8.65383 2091.5 34.2744L2213.51 59.895L2031.27 927.777Z" fill="#F5EDF4"/>
</svg>
