<svg width="430" height="586" viewBox="0 0 430 586" fill="none" xmlns="http://www.w3.org/2000/svg">
<path fill-rule="evenodd" clip-rule="evenodd" d="M979.998 585.877L938.131 493.141C896.264 400.404 812.53 214.932 700.657 163.459C588.785 111.986 448.775 194.512 334.089 156.438C219.403 118.365 130.041 -40.3074 12.5413 -64.9807C-104.958 -89.654 -250.596 19.6721 -323.415 74.3351L-396.234 128.998L-311.82 -273L-253.07 -260.663C-194.32 -248.327 -76.8204 -223.653 40.6793 -198.98C158.179 -174.307 275.679 -149.633 393.179 -124.96C510.679 -100.287 628.178 -75.6136 745.678 -50.9403C863.178 -26.267 980.678 -1.59371 1039.43 10.7429L1098.18 23.0796L979.998 585.877Z" fill="#F5EDF4"/>
</svg>
