<svg width="1024" height="941" viewBox="0 0 1024 941" fill="none" xmlns="http://www.w3.org/2000/svg">
<path fill-rule="evenodd" clip-rule="evenodd" d="M-2443.34 0.707703L-2388.39 127.851C-2335.24 254.51 -2224.86 506.988 -2074.61 603.458C-1922.07 698.603 -1730.14 639.547 -1545.13 613.528C-1362.42 588.833 -1188.9 598.498 -1022.8 643.007C-858.491 687.032 -701.589 765.901 -514.025 723.121C-324.657 680.826 -104.628 516.882 55.3154 577.183C216.579 639.776 315.951 926.13 468.009 1023.08C618.26 1119.55 821.681 1024.81 921.344 977.864L1023.3 929.59L855.637 1555.31L772.582 1533.05C691.333 1511.28 525.223 1466.77 360.919 1422.75C194.81 1378.24 30.5058 1334.21 -135.604 1289.7C-299.908 1245.68 -464.212 1201.65 -630.321 1157.14C-794.625 1113.12 -960.735 1068.61 -1125.04 1024.58C-1291.15 980.076 -1455.45 936.051 -1619.76 892.025C-1785.87 847.517 -1950.17 803.491 -2116.28 758.982C-2280.58 714.957 -2446.69 670.448 -2527.94 648.678L-2611 626.423L-2443.34 0.707703Z" fill="#F5EDF4"/>
</svg>
