<svg width="430" height="1076" viewBox="0 0 430 1076" fill="none" xmlns="http://www.w3.org/2000/svg">
<path fill-rule="evenodd" clip-rule="evenodd" d="M-1461.25 -294.361L-1372.51 -89.0375C-1286.68 115.505 -1108.42 523.231 -865.783 679.02C-619.443 832.669 -309.505 737.301 -10.7361 695.282C284.334 655.402 564.537 671.01 832.787 742.887C1098.12 813.983 1351.5 941.349 1654.4 872.265C1960.21 803.961 2315.54 539.208 2573.83 636.588C2834.25 737.67 2994.73 1200.1 3240.28 1356.67C3482.93 1512.46 3811.43 1359.47 3972.38 1283.65L4137.02 1205.69L3866.27 2216.16L3732.14 2180.22C3600.93 2145.06 3332.68 2073.18 3067.35 2002.09C2799.1 1930.21 2533.76 1859.11 2265.51 1787.24C2000.18 1716.14 1734.84 1645.04 1466.59 1573.17C1201.26 1502.07 933.008 1430.19 667.674 1359.1C399.424 1287.22 134.089 1216.12 -131.245 1145.03C-399.495 1073.15 -664.83 1002.05 -933.08 930.176C-1198.41 859.08 -1466.66 787.203 -1597.87 752.045L-1732 716.107L-1461.25 -294.361Z" fill="#F5EDF4"/>
</svg>
