<svg width="1920" height="3240" viewBox="0 0 1920 3240" fill="none" xmlns="http://www.w3.org/2000/svg">
<g clip-path="url(#clip0_2284_3226)">
<rect width="1920" height="1080" fill="white"/>
<path fill-rule="evenodd" clip-rule="evenodd" d="M-299.205 149L-222.169 278.83C-145.42 405.766 9.33381 662.781 202.646 766.181C395.957 869.58 629.082 822.506 828.527 902.107C1028.65 979.064 1096 1193 1279.24 1288.98L1363.77 1389.72L1324.24 1543.09L1220.63 1516.38C1117.98 1489.93 910.756 1436.52 704.496 1383.36C498.236 1330.2 291.008 1276.79 84.7477 1223.64C-121.512 1170.48 -328.741 1117.07 -431.386 1090.62L-535.001 1063.91L-299.205 149Z" fill="#F5EDF4"/>
<path fill-rule="evenodd" clip-rule="evenodd" d="M2031.27 927.777L1935.29 778.174C1839.31 628.57 1647.36 329.362 1412.02 236.793C1176.67 144.224 897.937 258.294 658.254 186.389C418.571 114.484 217.94 -143.396 -26.0824 -194.637C-270.105 -245.878 -557.518 -90.481 -701.225 -12.7823L-844.931 64.9164L-714.758 -554.999L-592.747 -529.379C-470.736 -503.758 -226.713 -452.517 17.3088 -401.276C261.331 -350.035 505.353 -298.793 749.375 -247.552C993.398 -196.311 1237.42 -145.07 1481.44 -93.8286C1725.46 -42.5874 1969.49 8.65383 2091.5 34.2744L2213.51 59.895L2031.27 927.777Z" fill="#F5EDF4"/>
</g>
<g clip-path="url(#clip1_2284_3226)">
<rect width="1920" height="1080" transform="translate(0 1080)" fill="white"/>
<path fill-rule="evenodd" clip-rule="evenodd" d="M-208 1738.61L-108.054 1615.85C-9.62711 1496.5 179.509 1230.99 324.5 1196C469.491 1161.01 588.894 1124.9 725.602 1122.05C861.39 1122.77 1003.36 1138.21 1093.5 1051L1206.4 1006.34L1259.78 799.212L1195.73 782.705C1132.28 766.351 1004.18 733.336 876.672 700.475C749.167 667.614 621.064 634.598 493.56 601.737C366.056 568.876 237.953 535.861 174.5 519.508L110.448 503L-208 1738.61Z" fill="#F5EDF4"/>
<path fill-rule="evenodd" clip-rule="evenodd" d="M536 2178.54L699.183 2212.84C862.365 2247.15 1188.73 2315.75 1350.52 2219.79C1512.32 2123.83 1684.66 2086.42 1830 1974C1975.34 1861.58 2093.66 1674.14 2222.54 1545.27C2351.41 1416.39 2315.72 1122.94 2297.87 976.212L2280.02 829.487L2773.74 1323.21L2709.3 1387.64C2644.86 1452.08 2515.99 1580.96 2387.11 1709.84C2258.23 1838.72 2129.35 1967.6 2000.47 2096.47C1871.6 2225.35 1742.72 2354.23 1613.84 2483.11C1484.96 2611.99 1356.08 2740.86 1291.64 2805.3L1227.21 2869.74L536 2178.54Z" fill="#F5EDF4"/>
<path fill-rule="evenodd" clip-rule="evenodd" d="M-1884.34 1437.07L-1829.39 1564.22C-1776.25 1690.88 -1665.86 1943.35 -1515.61 2039.82C-1363.07 2134.97 -1171.14 2075.91 -986.136 2049.89C-803.418 2025.2 -460.61 1749.86 -294.501 1794.37C-130.197 1838.39 -101.205 2018.67 73.9989 2054.37C277 2060.87 454.37 1953.25 614.313 2013.55C775.577 2076.14 874.949 2362.5 1027.01 2459.45C1177.26 2555.92 1380.68 2461.18 1480.34 2414.23L1582.29 2365.96L1414.63 2991.67L1331.58 2969.42C1250.33 2947.65 1084.22 2903.14 919.917 2859.11C753.807 2814.6 589.503 2770.58 423.394 2726.07C259.09 2682.04 94.7859 2638.02 -71.3237 2593.51C-235.628 2549.48 -401.737 2504.98 -566.041 2460.95C-732.151 2416.44 -896.455 2372.42 -1060.76 2328.39C-1226.87 2283.88 -1391.17 2239.86 -1557.28 2195.35C-1721.59 2151.32 -1887.7 2106.81 -1968.94 2085.04L-2052 2062.79L-1884.34 1437.07Z" fill="#F5EDF4"/>
</g>
<g clip-path="url(#clip2_2284_3226)">
<rect width="1920" height="1080" transform="translate(0 2160)" fill="white"/>
<path fill-rule="evenodd" clip-rule="evenodd" d="M2316.5 2202L2158 2154C2104.09 2080.44 2043.65 2339.1 1962.01 2314.19C1880.36 2289.28 1824.88 2386.59 1747.42 2380.97C1670.43 2377.49 1570.3 2269.08 1520.58 2214.81L1470.98 2162.75L1444 2038.47L1480.57 2030.53C1516.81 2022.67 1589.96 2006.79 1662.77 1990.98C1735.58 1975.17 1808.73 1959.3 1881.54 1943.49C1954.34 1927.68 2027.5 1911.81 2063.73 1903.94L2100.3 1896L2316.5 2202Z" fill="#F5EDF4"/>
<path fill-rule="evenodd" clip-rule="evenodd" d="M1805.29 2287.72L1694.13 2205.08C1584.78 2121.96 1362.94 1958.5 1184.59 1950.08C1004.91 1943.96 868.224 2091.06 721.013 2206.1C575.122 2318.84 420.025 2397.23 253.916 2441.74C89.6115 2485.76 -85.7048 2495.91 -226.75 2626.74C-369.6 2758.06 -478.179 3010.05 -646.844 3037.8C-817.799 3064.22 -1047.04 2865.92 -1227.2 2857.98C-1405.55 2849.57 -1534.35 3033.32 -1597.19 3123.81L-1661.34 3216.6L-1829 2590.88L-1745.95 2568.63C-1664.7 2546.86 -1498.59 2502.35 -1334.29 2458.32C-1168.18 2413.81 -1003.87 2369.79 -837.763 2325.28C-673.459 2281.25 -509.155 2237.23 -343.046 2192.72C-178.742 2148.7 -12.632 2104.19 151.672 2060.16C317.782 2015.65 482.086 1971.63 646.39 1927.6C812.499 1883.09 976.803 1839.07 1142.91 1794.56C1307.22 1750.53 1473.33 1706.02 1554.58 1684.25L1637.63 1662L1805.29 2287.72Z" fill="#F5EDF4"/>
<path fill-rule="evenodd" clip-rule="evenodd" d="M-2443.34 2299.71L-2388.39 2426.85C-2335.24 2553.51 -2224.86 2805.99 -2074.61 2902.46C-1922.07 2997.6 -1730.14 2938.55 -1545.13 2912.53C-1362.42 2887.83 -1188.91 2897.5 -1022.8 2942.01C-858.492 2986.03 -701.59 3064.9 -514.026 3022.12C-324.658 2979.83 -104.628 2815.88 55.3145 2876.18C216.578 2938.78 315.95 3225.13 468.008 3322.08C618.259 3418.55 821.68 3323.81 921.343 3276.86L1023.3 3228.59L855.636 3854.31L772.581 3832.05C691.332 3810.28 525.222 3765.77 360.918 3721.75C194.809 3677.24 30.5048 3633.21 -135.605 3588.7C-299.909 3544.68 -464.213 3500.65 -630.322 3456.14C-794.626 3412.12 -960.736 3367.61 -1125.04 3323.58C-1291.15 3279.08 -1455.45 3235.05 -1619.76 3191.03C-1785.87 3146.52 -1950.17 3102.49 -2116.28 3057.98C-2280.58 3013.96 -2446.69 2969.45 -2527.94 2947.68L-2611 2925.42L-2443.34 2299.71Z" fill="#F5EDF4"/>
</g>
<defs>
<clipPath id="clip0_2284_3226">
<rect width="1920" height="1080" fill="white"/>
</clipPath>
<clipPath id="clip1_2284_3226">
<rect width="1920" height="1080" fill="white" transform="translate(0 1080)"/>
</clipPath>
<clipPath id="clip2_2284_3226">
<rect width="1920" height="1080" fill="white" transform="translate(0 2160)"/>
</clipPath>
</defs>
</svg>
