<svg width="1920" height="928" viewBox="0 0 1920 928" fill="none" xmlns="http://www.w3.org/2000/svg">
<path fill-rule="evenodd" clip-rule="evenodd" d="M2031.26 927.777L1935.29 778.174C1839.31 628.57 1647.36 329.362 1412.02 236.793C1176.67 144.224 897.936 258.294 658.253 186.389C418.57 114.484 217.939 -143.396 -26.0834 -194.637C-270.106 -245.878 -557.519 -90.481 -701.226 -12.7823L-844.932 64.9164L-714.759 -554.999L-592.748 -529.379C-470.737 -503.758 -226.714 -452.517 17.3078 -401.276C261.33 -350.035 505.352 -298.793 749.374 -247.552C993.397 -196.311 1237.42 -145.07 1481.44 -93.8286C1725.46 -42.5874 1969.49 8.65383 2091.5 34.2744L2213.51 59.895L2031.26 927.777Z" fill="#F5EDF4"/>
</svg>
